<svg width="135" height="137" viewBox="0 0 135 137" fill="none" xmlns="http://www.w3.org/2000/svg">
<ellipse cx="67.5" cy="68.5" rx="67.5" ry="68.5" fill="white"/>
<ellipse cx="67.5" cy="69" rx="59.5" ry="60" fill="#572E9B"/>
<path d="M88.2188 45.2031C88.3125 45.5781 88.3594 45.9766 88.3594 46.3984C88.3594 46.7734 88.3125 47.125 88.2188 47.4531C88.0312 48.2031 87.4922 48.6953 86.6016 48.9297C86.4141 48.9766 86.25 49 86.1094 49C85.8281 49 85.5703 48.9062 85.3359 48.7188C85.0078 48.4844 84.5625 48.3203 84 48.2266C82.875 48.0859 81.6797 48.0156 80.4141 48.0156H79.0078C77.1797 48.1094 75.3516 48.2734 73.5234 48.5078C71.6953 48.6953 69.9375 48.9062 68.25 49.1406C66.6094 49.375 65.2031 49.5391 64.0312 49.6328C62.9531 55.0703 62.4141 60.625 62.4141 66.2969C62.4141 70.6094 62.7188 75.0156 63.3281 79.5156H63.9609C64.4766 79.5156 65.0625 79.4688 65.7188 79.375C66.5625 79.2812 67.4531 79.1875 68.3906 79.0938C69.3281 78.9531 70.2656 78.8828 71.2031 78.8828C72.1406 78.8828 73.0547 79.0234 73.9453 79.3047C74.0859 79.7266 74.1562 80.1484 74.1562 80.5703C74.1562 80.8984 74.1094 81.2266 74.0156 81.5547C73.7812 82.3047 73.3594 82.7969 72.75 83.0312C71.5312 82.9375 70.125 82.8203 68.5312 82.6797H67.6172C66.3516 82.6797 65.1562 82.8672 64.0312 83.2422C64.0781 84.4141 64.2422 85.5625 64.5234 86.6875C64.8047 87.7656 65.0391 89.0547 65.2266 90.5547C65.3672 91.7734 65.7188 93.0156 66.2812 94.2812C66.8438 95.5938 67.2656 96.7656 67.5469 97.7969C67.6406 98.2188 67.6875 98.6172 67.6875 98.9922C67.6875 99.5078 67.5938 99.9531 67.4062 100.328C67.0312 101.031 66 101.383 64.3125 101.383C63.7031 100.211 63.2109 98.9219 62.8359 97.5156C62.4609 96.1094 62.1328 94.6797 61.8516 93.2266C61.5703 91.7266 61.3125 90.25 61.0781 88.7969C60.8438 87.3438 60.5859 85.9609 60.3047 84.6484H59.1094C58.9688 84.6953 58.8047 84.7188 58.6172 84.7188C58.2891 84.7188 57.9844 84.6953 57.7031 84.6484C57.1875 84.6016 56.7422 84.5078 56.3672 84.3672C55.9922 84.1797 55.7344 83.8984 55.5938 83.5234C55.5938 83.1016 55.6406 82.75 55.7344 82.4688C55.875 82.1406 55.9922 81.7891 56.0859 81.4141C56.4609 81.0391 56.9766 80.8281 57.6328 80.7812C58.3359 80.7344 58.9922 80.6172 59.6016 80.4297C58.8984 75.7422 58.5234 70.8203 58.4766 65.6641V64.9609C58.4766 60.0859 58.9219 55.375 59.8125 50.8281C59.1094 50.9219 58.2656 51.25 57.2812 51.8125C56.2969 52.3281 55.3594 52.75 54.4688 53.0781C53.9062 53.2656 53.3906 53.3594 52.9219 53.3594C52.5938 53.3594 52.3125 53.3125 52.0781 53.2188C51.4219 53.0312 51.0234 52.2344 50.8828 50.8281C52.2422 49.8906 53.7656 49.1406 55.4531 48.5781C57.1875 47.9688 58.9453 47.3828 60.7266 46.8203C60.8203 46.2109 60.9609 45.5781 61.1484 44.9219C61.3359 44.2656 61.5938 43.7031 61.9219 43.2344C62.25 42.7656 62.6953 42.4609 63.2578 42.3203C63.3516 42.2734 63.4688 42.25 63.6094 42.25C64.0781 42.25 64.6172 42.4375 65.2266 42.8125C65.5547 43 65.7188 43.3281 65.7188 43.7969V44.3594C65.7188 44.7812 65.7891 45.1328 65.9297 45.4141C67.8047 45.1797 69.6094 45.0156 71.3438 44.9219C73.0781 44.8281 74.7891 44.7578 76.4766 44.7109C78.1641 44.6641 79.8516 44.6172 81.5391 44.5703C83.2266 44.5234 84.9844 44.4062 86.8125 44.2188C87.0469 44.4531 87.2812 44.6406 87.5156 44.7812C87.75 44.9219 87.9844 45.0625 88.2188 45.2031Z" fill="white"/>
</svg>
