<svg width="25" height="50" viewBox="0 0 25 50" fill="none" xmlns="http://www.w3.org/2000/svg">
<path d="M12.5 26.3334H20.3333V32H12.5C11.7636 32 11.1667 32.597 11.1667 33.3333V49.5H5.50004V16.7025C6.38941 17.0035 7.3423 17.1666 8.33332 17.1666C9.32436 17.1666 10.2773 17.0034 11.1667 16.7024V25.8791V26.4374L11.7216 26.3761C11.977 26.3479 12.2367 26.3334 12.5 26.3334ZM8.33332 16.1666C7.36102 16.1666 6.4301 15.9895 5.57107 15.6657C6.05672 12.2739 8.9739 9.66671 12.5 9.66671H16.0536C15.4206 13.3578 12.205 16.1666 8.33332 16.1666ZM16.1597 8.66671H12.5C8.56998 8.66671 5.30183 11.5006 4.62754 15.2364C2.17035 13.9145 0.5 11.319 0.5 8.33332C0.5 4.0071 4.0071 0.5 8.33332 0.5C12.6595 0.5 16.1666 4.0071 16.1666 8.33332C16.1666 8.44501 16.1643 8.55616 16.1597 8.66671ZM13.7217 15.3334C15.4837 13.975 16.7185 11.9663 17.0667 9.66671H24.5V15.3334H13.7217Z" fill="#572E9B" stroke="#572E9B"/>
<path d="M8.37434 14.6991C8.37434 14.491 8.52108 12.4478 8.34232 12.3967C8.12255 12.3339 7.59722 14.2311 7.50975 14.4685C7.33687 14.9378 7.39447 14.3396 7.39447 14.1547C7.39447 14.0602 7.44604 13.6225 7.41688 13.6808C7.18721 14.1401 7.14619 14.6547 6.96217 15.125C6.78287 15.5832 6.88204 14.537 6.87571 14.366C6.87124 14.2454 6.65425 14.2844 6.58751 14.334C6.43527 14.4471 6.36184 14.6912 6.35696 14.872C6.35558 14.923 6.32178 15.169 6.36977 15.205C6.53041 15.3255 6.85517 15.153 6.96537 15.0449C7.12452 14.8888 7.71588 14.0173 7.38166 13.8025C7.00296 13.559 6.43141 14.1893 6.59392 14.555C6.65874 14.7008 7.34038 14.8033 7.47132 14.8464C8.11978 15.0597 8.77374 15.2465 9.44707 15.3587C10.2261 15.4886 9.27051 14.5537 9.11084 14.4013C8.82238 14.1259 7.54466 13.0578 7.34003 13.9786C7.24172 14.421 7.20539 14.8677 7.22155 15.3203C7.22898 15.5283 7.70453 15.4568 7.85558 15.4484C7.96118 15.4425 8.33019 15.2892 8.41917 15.4036C8.49611 15.5025 7.67955 15.506 8.3167 15.506C8.67321 15.506 9.02972 15.506 9.38623 15.506C9.90295 15.506 10.2977 15.1704 10.7952 15.0993C11.7149 14.968 12.368 14.4386 13.0431 13.8345C13.8382 13.1231 14.4322 12.2814 14.8844 11.3015C14.9509 11.1575 15.3397 10.3761 15.0893 10.3761C14.8296 10.3761 14.5562 10.3185 14.2856 10.3185C14.1196 10.3185 14.0348 10.4337 13.8789 10.4337C13.3223 10.4337 12.7843 10.549 12.2234 10.549C11.9816 10.549 11.7601 10.6013 11.5445 10.7091C10.9431 11.0098 12.8773 10.5304 13.5427 10.4337C13.8407 10.3904 15.464 10.5895 15.464 10.0079C15.464 9.914 15.2884 10.0813 15.195 10.0911C14.8236 10.1302 14.4649 10.1456 14.0903 10.1456C13.7704 10.1456 13.4312 10.2032 13.1296 10.2032C12.9287 10.2032 12.7119 10.2903 12.5116 10.3313C12.3447 10.3654 11.8611 10.3514 11.7302 10.4466C11.6084 10.5352 11.3672 10.5062 11.2115 10.5618C10.8933 10.6755 10.552 10.7356 10.2316 10.85C9.82282 10.996 9.46477 11.3564 9.03399 11.4713C8.6963 11.5613 8.26869 11.7947 7.98047 11.9868C7.76664 12.1294 7.56906 12.2244 7.42329 12.4511C7.3216 12.6093 7.11345 12.8858 7.10627 13.0724C7.10136 13.1999 7.09236 13.4332 7.03582 13.5463C6.95712 13.7037 6.65494 13.7736 6.64515 13.9498C6.62747 14.268 6.72097 14.2487 7.02301 14.3532C7.59385 14.5508 8.23436 14.6899 8.77782 14.9617C8.92595 15.0357 9.06889 15.1002 9.21011 14.9873C9.3312 14.8904 8.8654 14.4067 8.81304 14.302C8.71576 14.1074 8.53869 14.0327 8.44479 13.8345C8.31979 13.5706 9.12344 13.9979 9.22612 14.065C9.53357 14.2661 9.77069 14.564 10.1035 14.7119C10.5228 14.8982 10.0869 14.5851 9.9178 14.4685C9.63852 14.2759 9.37806 14.0436 9.18129 13.764C9.09461 13.6409 9.03827 13.4865 8.93793 13.3862C8.61657 13.0648 9.39126 13.3908 9.53994 13.4566C10.0454 13.6806 10.7952 13.9613 10.7952 14.5838C10.7952 15.0366 10.8516 14.7317 10.6159 14.4077C10.2065 13.8448 9.68456 13.236 9.06922 12.8898C8.763 12.7176 9.34662 12.8929 9.42466 12.9251C9.97888 13.1538 10.3588 13.5774 10.8528 13.8793C11.1042 14.0329 11.0326 14.4394 11.2691 14.6286C11.4007 14.7339 11.5445 14.6239 11.5445 14.4941C11.5445 14.1261 11.099 13.6319 10.792 13.463C10.547 13.3283 10.3836 13.2256 10.158 13.0563C10.0542 12.9785 9.9464 12.9085 9.84415 12.829C9.77358 12.7741 9.68416 12.8198 9.61359 12.7649C9.46223 12.6472 9.40595 12.5421 9.28376 12.4063C9.17729 12.288 8.98392 12.3434 8.9059 12.2654C8.73686 12.0964 9.09541 11.99 9.1941 11.99C9.42511 11.99 9.82817 11.9186 10.0331 12.0477C10.423 12.2931 10.5501 12.8801 10.9393 13.1396C11.1311 13.2675 11.4144 13.3009 11.5765 13.463C11.7172 13.6037 11.8647 13.7933 12.0376 13.8921C12.1813 13.9742 12.2362 14.1111 12.2362 13.9049C12.2362 13.7026 12.192 13.5217 12.0056 13.4182C11.8531 13.3334 11.6155 13.1433 11.4869 13.0275C11.2849 12.8458 11.1614 12.6343 10.9681 12.4511C10.7969 12.289 10.507 12.2278 10.507 11.9612C10.507 11.8507 10.3806 11.6468 10.3053 11.5865C10.1393 11.4537 10.5701 11.467 10.6223 11.4745C10.9079 11.5153 11.1497 11.8258 11.3396 12.0156C11.6778 12.3539 11.9749 12.8028 12.2618 13.1716C12.3549 13.2913 12.4041 13.4419 12.5564 13.4854C12.6748 13.5193 12.8702 13.6075 12.8702 13.4022C12.8702 12.9106 12.6228 12.5708 12.1785 12.3487C11.8345 12.1766 11.6453 11.8748 11.4997 11.5289C11.4643 11.4448 11.4776 11.3574 11.4292 11.2727C11.3908 11.2055 11.2951 11.2467 11.3172 11.324C11.3607 11.4764 11.6129 11.6371 11.7462 11.6986C11.9011 11.7701 12.0912 11.8007 12.1785 11.9644C12.2383 12.0765 12.3295 12.2027 12.4379 12.275C12.6173 12.3946 12.7904 12.3876 12.9567 12.48C13.0792 12.548 13.2473 12.5936 13.3441 12.6689C13.403 12.7147 13.3879 12.5322 13.3762 12.5088C13.3325 12.4213 13.2269 12.3467 13.1584 12.2782C12.9495 12.0693 12.7159 11.9296 12.4796 11.7595C12.3594 11.6729 12.286 11.5289 12.1209 11.5289C11.9248 11.5289 11.82 11.5601 11.7783 11.3304C11.7356 11.0956 12.0458 11.1254 12.2042 11.1254C12.5277 11.1254 12.8011 11.6327 13.0143 11.8459C13.1654 11.997 14.0718 12.2929 13.722 11.8171C13.5335 11.5607 13.1874 11.4713 12.883 11.4713C12.703 11.4713 12.5752 11.5035 12.4539 11.3688C12.3095 11.2083 12.9765 11.417 13.0399 11.4392C13.1036 11.4615 13.5899 11.5319 13.6163 11.4392C13.7125 11.1028 12.2078 11.2536 13.1008 11.3528C13.2285 11.367 13.6384 11.5139 13.722 11.356C13.8101 11.1895 13.5188 11.2237 13.4594 11.1703C12.9735 10.7329 14.0125 11.4199 14.023 11.2407C14.038 10.9853 14.081 11.1356 14.2536 11.1254C14.3892 11.1174 14.3581 10.8923 14.2408 10.85C13.9857 10.7582 13.6443 10.9357 13.5619 11.1831" stroke="#572E9B" stroke-linecap="round" stroke-linejoin="round"/>
</svg>
