<svg width="219" height="210" viewBox="0 0 219 210" fill="none" xmlns="http://www.w3.org/2000/svg">
<path d="M116 84.5L87 4L116 43.5L121.5 4L136 43.5L182.5 4L128 84.5L121.5 70L116 84.5Z" fill="#33651C"/>
<path d="M116 43.5L87 4L116 84.5L121.5 70M116 43.5L121.5 70M116 43.5L121.5 4L136 43.5M121.5 70L136 43.5M121.5 70L128 84.5L182.5 4L136 43.5" stroke="#33651C"/>
<rect x="85" y="61" width="87" height="87" fill="#456068"/>
<rect x="85" y="80" width="87" height="68" fill="#A87152"/>
<path d="M122.917 91.745L123.938 92.1638C126.796 93.3363 130.01 93.2857 132.83 92.0238L133.221 91.8484C135.951 90.627 138.018 88.2841 138.889 85.4239L139.116 84.6786C139.687 82.8063 139.571 80.7919 138.79 78.9973C137.971 77.1166 136.479 75.6096 134.607 74.7717L133.195 74.1399C130.142 72.7734 126.662 72.7186 123.567 73.9882L121.498 74.8369C119.565 75.6303 118.016 77.1462 117.182 79.0628C116.419 80.8151 116.306 82.7821 116.863 84.6103L117.086 85.3411C117.97 88.2427 120.111 90.5938 122.917 91.745Z" fill="white" stroke="#C4C4C4" stroke-width="3"/>
<path fill-rule="evenodd" clip-rule="evenodd" d="M148.673 95H214.595L199.127 146.004H133.204L148.673 95Z" fill="#8F8F9D"/>
<path fill-rule="evenodd" clip-rule="evenodd" d="M209.954 98.2803L196.749 141.83H137.756L150.961 98.2803H209.954Z" fill="white"/>
<path fill-rule="evenodd" clip-rule="evenodd" d="M85 150.198H150.923V146.004H85V150.198Z" fill="#8F8F9D"/>
<path fill-rule="evenodd" clip-rule="evenodd" d="M150.923 150.198H199.103V146.004H150.923V150.198Z" fill="#BFBFD0"/>
<path fill-rule="evenodd" clip-rule="evenodd" d="M214.54 95H218.591L203.124 146.004H199.073L214.54 95Z" fill="#BFBFD0"/>
<path fill-rule="evenodd" clip-rule="evenodd" d="M25.9935 41.7955C23.2348 41.8462 21.0386 44.1221 21.0862 46.8809L21.6576 79.9951C21.7053 82.7583 23.9856 84.9588 26.7488 84.9079L65.0066 84.2042C67.7653 84.1535 69.9615 81.8776 69.9139 79.1188L69.3427 46.0049C69.295 43.2417 67.0147 41.0412 64.2515 41.092L25.9935 41.7955Z" fill="#80808C"/>
<path fill-rule="evenodd" clip-rule="evenodd" d="M84.9935 39.7797C85.3866 62.1435 67.799 80.5956 45.7114 80.9935C23.6232 81.3908 5.39897 63.5836 5.00646 41.2198C4.61341 18.856 22.201 0.404396 44.2886 0.00653904C66.3768 -0.391318 84.6005 17.4159 84.9935 39.7797" fill="#80808C"/>
<path fill-rule="evenodd" clip-rule="evenodd" d="M34.0429 60.4275C36.2806 63.9009 35.4623 68.5397 34.2629 71.2613C33.8575 72.1969 31.2535 80.025 30.8611 80.3839C29.3355 81.7769 48.4143 89.7834 48.4143 89.7834L49.4191 74.0517C54.9161 74.281 61.3566 73.8826 64.8581 71.4537C75.2885 64.2153 75.5166 39.7085 75.3242 38.4862L66.3192 28.6655C66.3192 28.6655 52.8827 22.6808 50.8953 25.3498C47.261 30.2391 38.9226 51.9841 32.5932 49.6219C32.5932 49.6219 33.2771 42.8925 27.7124 42.9917C23.5654 43.0665 22.4967 46.4353 22.5308 48.3703C22.6462 54.9036 31.0372 55.7486 34.0429 60.4275" fill="#C4C4C4"/>
<path fill-rule="evenodd" clip-rule="evenodd" d="M113.65 150.278L113.495 139.273L66.5524 134.814L46.5295 103.064L29.0289 119.972C29.0289 119.972 49.4447 147.244 57.5994 150.594C71.8705 156.457 113.65 150.278 113.65 150.278" fill="#A2A2A9"/>
<path fill-rule="evenodd" clip-rule="evenodd" d="M140.664 150.278L140.509 139.273L93.5656 134.814L73.5427 103.064L56.0421 119.972C56.0421 119.972 76.4573 147.244 84.6126 150.594C98.8837 156.457 140.664 150.278 140.664 150.278" fill="#C4C4C4"/>
<path fill-rule="evenodd" clip-rule="evenodd" d="M0 165L51.7714 164.381C51.7714 164.381 51.5433 155.51 56.7343 139.138C58.8036 132.612 58.3962 128.746 58.3962 128.746L66.8532 140.176L85 114.468C70.1587 95.2072 64.8728 90.5345 54.2329 84.9558C48.5163 81.9582 41.1774 78.3507 28.1921 80.822C21.4616 82.1028 6.526 91.3013 5.91854 111.281C5.44788 126.748 0 165 0 165" fill="#572E9B"/>
<path fill-rule="evenodd" clip-rule="evenodd" d="M14.5673 83.9973L21.0466 83.7854C22.1326 83.7499 22.9916 82.8537 22.9811 81.7671L22.5875 41.0465C22.5766 39.9239 21.6442 39.0302 20.5222 39.0669L6.95342 39.5106C5.86737 39.5461 5.00839 40.4423 5.01888 41.5289L5.26972 67.4884C5.35953 76.7714 9.5223 84.1624 14.5673 83.9973" fill="#80808C"/>
<path fill-rule="evenodd" clip-rule="evenodd" d="M139.536 150.339C139.536 150.339 154.559 147.234 161.995 145.697C163.329 145.421 167.693 145.498 167.693 145.498C168.994 145.359 171.712 145.203 172.072 143.728C172.161 143.363 171.737 142.951 171.737 142.951C171.737 142.951 173.44 142.89 173.722 141.393C173.832 140.805 170.124 140.095 170.124 140.095C170.124 140.095 172.386 140.205 172.083 138.319C172.033 138.009 161.431 135.885 161.431 135.885L163.479 136.035L166.282 136.354C166.282 136.354 167.704 136.025 167.898 134.975C167.975 134.558 165.67 133.837 163.047 133.41C158.966 132.745 155.934 133.122 152.93 133.809C149.3 134.639 148.068 134.602 143.658 136.687C141.839 137.548 139.106 139.279 137.945 140.162" fill="#C4C4C4"/>
<path fill-rule="evenodd" clip-rule="evenodd" d="M73.0312 51.9573L74.5768 62.3396L70.1226 61.1374L73.0312 51.9573Z" fill="#33363D"/>
<path d="M66.3073 64.531C66.3073 64.531 63.2854 65.0031 63.3342 60.3839" stroke="#33363D" stroke-width="2.1"/>
<path fill-rule="evenodd" clip-rule="evenodd" d="M49.906 74.1866C49.906 74.1866 39.8994 73.5839 37 71.8472L49.37 78.7788L49.906 74.1866Z" fill="#8F8F9D"/>
<path d="M87.1094 168.602C87.1562 168.789 87.1797 168.988 87.1797 169.199C87.1797 169.387 87.1562 169.562 87.1094 169.727C87.0156 170.102 86.7461 170.348 86.3008 170.465C86.207 170.488 86.125 170.5 86.0547 170.5C85.9141 170.5 85.7852 170.453 85.668 170.359C85.5039 170.242 85.2812 170.16 85 170.113C84.4375 170.043 83.8398 170.008 83.207 170.008H82.5039C81.5898 170.055 80.6758 170.137 79.7617 170.254C78.8477 170.348 77.9688 170.453 77.125 170.57C76.3047 170.688 75.6016 170.77 75.0156 170.816C74.4766 173.535 74.207 176.312 74.207 179.148C74.207 181.305 74.3594 183.508 74.6641 185.758H74.9805C75.2383 185.758 75.5312 185.734 75.8594 185.688C76.2812 185.641 76.7266 185.594 77.1953 185.547C77.6641 185.477 78.1328 185.441 78.6016 185.441C79.0703 185.441 79.5273 185.512 79.9727 185.652C80.043 185.863 80.0781 186.074 80.0781 186.285C80.0781 186.449 80.0547 186.613 80.0078 186.777C79.8906 187.152 79.6797 187.398 79.375 187.516C78.7656 187.469 78.0625 187.41 77.2656 187.34H76.8086C76.1758 187.34 75.5781 187.434 75.0156 187.621C75.0391 188.207 75.1211 188.781 75.2617 189.344C75.4023 189.883 75.5195 190.527 75.6133 191.277C75.6836 191.887 75.8594 192.508 76.1406 193.141C76.4219 193.797 76.6328 194.383 76.7734 194.898C76.8203 195.109 76.8438 195.309 76.8438 195.496C76.8438 195.754 76.7969 195.977 76.7031 196.164C76.5156 196.516 76 196.691 75.1562 196.691C74.8516 196.105 74.6055 195.461 74.418 194.758C74.2305 194.055 74.0664 193.34 73.9258 192.613C73.7852 191.863 73.6562 191.125 73.5391 190.398C73.4219 189.672 73.293 188.98 73.1523 188.324H72.5547C72.4844 188.348 72.4023 188.359 72.3086 188.359C72.1445 188.359 71.9922 188.348 71.8516 188.324C71.5938 188.301 71.3711 188.254 71.1836 188.184C70.9961 188.09 70.8672 187.949 70.7969 187.762C70.7969 187.551 70.8203 187.375 70.8672 187.234C70.9375 187.07 70.9961 186.895 71.043 186.707C71.2305 186.52 71.4883 186.414 71.8164 186.391C72.168 186.367 72.4961 186.309 72.8008 186.215C72.4492 183.871 72.2617 181.41 72.2383 178.832V178.48C72.2383 176.043 72.4609 173.688 72.9062 171.414C72.5547 171.461 72.1328 171.625 71.6406 171.906C71.1484 172.164 70.6797 172.375 70.2344 172.539C69.9531 172.633 69.6953 172.68 69.4609 172.68C69.2969 172.68 69.1562 172.656 69.0391 172.609C68.7109 172.516 68.5117 172.117 68.4414 171.414C69.1211 170.945 69.8828 170.57 70.7266 170.289C71.5938 169.984 72.4727 169.691 73.3633 169.41C73.4102 169.105 73.4805 168.789 73.5742 168.461C73.668 168.133 73.7969 167.852 73.9609 167.617C74.125 167.383 74.3477 167.23 74.6289 167.16C74.6758 167.137 74.7344 167.125 74.8047 167.125C75.0391 167.125 75.3086 167.219 75.6133 167.406C75.7773 167.5 75.8594 167.664 75.8594 167.898V168.18C75.8594 168.391 75.8945 168.566 75.9648 168.707C76.9023 168.59 77.8047 168.508 78.6719 168.461C79.5391 168.414 80.3945 168.379 81.2383 168.355C82.082 168.332 82.9258 168.309 83.7695 168.285C84.6133 168.262 85.4922 168.203 86.4062 168.109C86.5234 168.227 86.6406 168.32 86.7578 168.391C86.875 168.461 86.9922 168.531 87.1094 168.602ZM89.5352 170.219C90.0039 169.938 90.3906 169.797 90.6953 169.797H90.8711C91.1758 169.867 91.3867 170.031 91.5039 170.289C91.5508 170.453 91.5742 170.641 91.5742 170.852V171.168C91.5039 171.52 91.375 171.801 91.1875 172.012C91 172.199 90.7773 172.293 90.5195 172.293C90.4727 172.293 90.4375 172.281 90.4141 172.258C90.0859 172.234 89.7227 171.988 89.3242 171.52C89.3008 171.426 89.2891 171.344 89.2891 171.273C89.2891 171.086 89.3359 170.934 89.4297 170.816C89.5 170.699 89.5352 170.547 89.5352 170.359V170.219ZM92.3477 194.898C92.1133 194.992 91.9023 195.039 91.7148 195.039C91.5742 195.039 91.457 195.004 91.3633 194.934C91.1055 194.816 90.8945 194.605 90.7305 194.301C90.5664 194.02 90.4375 193.691 90.3438 193.316C90.25 192.965 90.1445 192.637 90.0273 192.332C89.6289 191.324 89.2891 190.176 89.0078 188.887C88.7266 187.598 88.5273 186.262 88.4102 184.879C88.3164 183.73 88.2695 182.57 88.2695 181.398V180.695C88.293 179.312 88.4102 178.023 88.6211 176.828C88.9258 176.547 89.2539 176.406 89.6055 176.406H89.7461C90.1445 176.453 90.4258 176.664 90.5898 177.039C90.6602 177.18 90.6953 177.332 90.6953 177.496C90.6953 177.66 90.6719 177.836 90.625 178.023C90.5078 178.422 90.4258 178.844 90.3789 179.289C90.332 179.805 90.3086 180.379 90.3086 181.012V181.645C90.332 182.535 90.3555 183.273 90.3789 183.859C90.3789 184.352 90.3906 184.902 90.4141 185.512C90.4609 186.098 90.5312 186.695 90.625 187.305C90.7188 187.914 90.8242 188.512 90.9414 189.098C91.082 189.684 91.2461 190.211 91.4336 190.68C91.5742 191.078 91.7617 191.465 91.9961 191.84C92.2305 192.191 92.418 192.531 92.5586 192.859C92.7227 193.188 92.8047 193.516 92.8047 193.844C92.8047 194.195 92.6523 194.547 92.3477 194.898ZM114.848 181.609C115.035 182.617 115.129 183.555 115.129 184.422C115.129 185.242 115.047 186.004 114.883 186.707C114.531 188.184 113.91 189.438 113.02 190.469C112.152 191.5 111.051 192.332 109.715 192.965C108.402 193.574 106.973 194.02 105.426 194.301C103.855 194.254 102.414 194.055 101.102 193.703C99.8125 193.352 98.6758 192.801 97.6914 192.051C97.2695 191.746 96.918 191.383 96.6367 190.961C96.3789 190.516 96.1445 190.059 95.9336 189.59C95.7227 189.121 95.5117 188.641 95.3008 188.148C95.1133 187.633 94.8906 187.129 94.6328 186.637C94.8203 185.465 95.0078 184.305 95.1953 183.156C95.3828 182.008 95.6641 180.941 96.0391 179.957C96.5781 179.301 97.1992 178.645 97.9023 177.988C98.6055 177.332 99.3789 176.758 100.223 176.266C101.066 175.75 101.969 175.363 102.93 175.105C103.586 174.918 104.266 174.824 104.969 174.824C105.273 174.824 105.59 174.848 105.918 174.895C106.293 174.941 106.727 175.035 107.219 175.176C107.734 175.316 108.238 175.48 108.73 175.668C109.246 175.855 109.727 176.066 110.172 176.301C110.641 176.535 111.016 176.77 111.297 177.004C111.531 177.215 111.742 177.438 111.93 177.672C112.117 177.906 112.293 178.152 112.457 178.41C112.645 178.645 112.844 178.867 113.055 179.078C113.289 179.289 113.57 179.465 113.898 179.605C114.062 179.934 114.203 180.285 114.32 180.66C114.461 181.012 114.637 181.328 114.848 181.609ZM113.09 186.777C113.16 186.355 113.195 185.934 113.195 185.512C113.195 185.184 113.184 184.844 113.16 184.492C113.043 183.695 112.973 182.922 112.949 182.172C112.598 181.938 112.293 181.645 112.035 181.293C111.777 180.941 111.531 180.578 111.297 180.203C111.062 179.828 110.816 179.465 110.559 179.113C110.324 178.762 110.031 178.457 109.68 178.199C108.93 177.918 108.215 177.625 107.535 177.32C106.879 176.992 106.176 176.816 105.426 176.793H105.215C104.277 176.793 103.48 176.945 102.824 177.25C102.098 177.578 101.406 177.965 100.75 178.41C100.281 178.738 99.8594 179.043 99.4844 179.324C99.1094 179.605 98.7695 179.91 98.4648 180.238C98.1836 180.566 97.9258 180.93 97.6914 181.328C97.457 181.703 97.2578 182.148 97.0938 182.664C96.8828 183.555 96.7773 184.398 96.7773 185.195C96.7773 185.781 96.8359 186.344 96.9531 186.883C97.2344 188.148 97.7852 189.25 98.6055 190.188C99.0977 190.445 99.6133 190.727 100.152 191.031C100.691 191.312 101.254 191.57 101.84 191.805C102.449 192.016 103.07 192.168 103.703 192.262C104.031 192.332 104.371 192.367 104.723 192.367C105.027 192.367 105.344 192.344 105.672 192.297C106.469 192.18 107.277 191.957 108.098 191.629C108.918 191.301 109.668 190.891 110.348 190.398C111.027 189.906 111.613 189.355 112.105 188.746C112.598 188.137 112.926 187.48 113.09 186.777ZM136.398 180.449C136.375 181.48 136.34 182.535 136.293 183.613C136.246 184.668 136.152 185.711 136.012 186.742C135.871 187.75 135.672 188.723 135.414 189.66C135.156 190.574 134.816 191.418 134.395 192.191C134.418 192.332 134.43 192.473 134.43 192.613C134.43 192.895 134.383 193.141 134.289 193.352C134.125 193.703 133.914 193.961 133.656 194.125C133.445 194.289 133.211 194.371 132.953 194.371C132.906 194.371 132.859 194.359 132.812 194.336C132.484 194.312 132.191 194.148 131.934 193.844C131.91 193.656 131.898 193.492 131.898 193.352C131.898 193.211 131.91 193.07 131.934 192.93C131.98 192.695 132.051 192.473 132.145 192.262C132.262 192.051 132.379 191.863 132.496 191.699C132.613 191.512 132.73 191.324 132.848 191.137C133.246 190.082 133.574 188.875 133.832 187.516C134.09 186.133 134.23 184.762 134.254 183.402V183.262C134.254 181.949 134.102 180.719 133.797 179.57C133.469 178.375 132.918 177.414 132.145 176.688C132.027 176.57 131.852 176.477 131.617 176.406C131.383 176.336 131.137 176.289 130.879 176.266H130.598C130.41 176.266 130.234 176.277 130.07 176.301C129.789 176.324 129.543 176.371 129.332 176.441C128.395 176.77 127.504 177.32 126.66 178.094C125.84 178.844 125.125 179.746 124.516 180.801C123.906 181.832 123.449 182.957 123.145 184.176C122.863 185.184 122.723 186.215 122.723 187.27C122.723 187.504 122.734 187.738 122.758 187.973C122.781 188.512 122.863 189.039 123.004 189.555C123.145 190.047 123.285 190.539 123.426 191.031C123.59 191.523 123.742 192.027 123.883 192.543C124.023 193.035 124.117 193.551 124.164 194.09C123.977 194.348 123.754 194.559 123.496 194.723C123.285 194.863 123.027 194.934 122.723 194.934C122.582 194.934 122.441 194.922 122.301 194.898C121.879 194.031 121.598 193.105 121.457 192.121C121.34 191.137 121.188 190.141 121 189.133C120.836 188.266 120.648 187.352 120.438 186.391C120.25 185.43 120.039 184.492 119.805 183.578C119.594 182.641 119.359 181.738 119.102 180.871C118.867 179.98 118.633 179.172 118.398 178.445C118.305 178.164 118.199 177.906 118.082 177.672C117.988 177.438 117.918 177.215 117.871 177.004C117.848 176.887 117.836 176.781 117.836 176.688C117.836 176.594 117.848 176.488 117.871 176.371C117.918 176.184 118.059 175.973 118.293 175.738C118.48 175.668 118.656 175.633 118.82 175.633C119.031 175.633 119.219 175.68 119.383 175.773C119.641 175.961 119.84 176.219 119.98 176.547C120.121 176.875 120.227 177.238 120.297 177.637C120.367 178.035 120.438 178.387 120.508 178.691C120.719 179.441 120.93 180.145 121.141 180.801C121.375 181.434 121.516 181.984 121.562 182.453C122.031 181.516 122.535 180.625 123.074 179.781C123.637 178.914 124.258 178.129 124.938 177.426C125.617 176.699 126.379 176.066 127.223 175.527C128.09 174.988 129.074 174.555 130.176 174.227H130.352C131.336 174.227 132.145 174.402 132.777 174.754C133.434 175.129 133.973 175.621 134.395 176.23C134.84 176.816 135.203 177.484 135.484 178.234C135.789 178.984 136.094 179.723 136.398 180.449ZM161.5 192.156C161.43 192.438 161.348 192.695 161.254 192.93C161.16 193.164 161.008 193.328 160.797 193.422C160.68 193.469 160.539 193.492 160.375 193.492C160.258 193.492 160.141 193.48 160.023 193.457C159.695 193.41 159.355 193.316 159.004 193.176C158.652 193.035 158.312 192.871 157.984 192.684C157.68 192.496 157.445 192.32 157.281 192.156C156.953 191.852 156.684 191.5 156.473 191.102C156.285 190.703 156.109 190.305 155.945 189.906C155.781 189.484 155.629 189.098 155.488 188.746C155.371 188.395 155.219 188.113 155.031 187.902C154.773 188.02 154.562 188.172 154.398 188.359C154.234 188.547 154.07 188.758 153.906 188.992C153.766 189.227 153.613 189.473 153.449 189.73C153.309 189.965 153.133 190.176 152.922 190.363C152.43 190.855 151.832 191.301 151.129 191.699C150.449 192.074 149.711 192.367 148.914 192.578C148.234 192.766 147.531 192.859 146.805 192.859C146.688 192.859 146.57 192.848 146.453 192.824C145.609 192.801 144.789 192.613 143.992 192.262C143.172 191.699 142.422 190.984 141.742 190.117C141.086 189.25 140.559 188.289 140.16 187.234C139.762 186.18 139.539 185.055 139.492 183.859C139.469 183.719 139.457 183.578 139.457 183.438C139.457 182.406 139.645 181.352 140.02 180.273C140.16 179.898 140.348 179.488 140.582 179.043C140.84 178.574 141.121 178.129 141.426 177.707C141.73 177.285 142.047 176.898 142.375 176.547C142.727 176.195 143.066 175.914 143.395 175.703C144.238 175.188 145.164 174.848 146.172 174.684C146.711 174.613 147.25 174.578 147.789 174.578C148.234 174.578 148.691 174.602 149.16 174.648C150.168 174.789 151.141 175.059 152.078 175.457C153.039 175.832 153.906 176.301 154.68 176.863C154.891 176.652 155.148 176.43 155.453 176.195C155.781 175.938 156.121 175.727 156.473 175.562C156.777 175.445 157.082 175.387 157.387 175.387H157.562C157.914 175.41 158.254 175.586 158.582 175.914C158.77 176.641 158.863 177.355 158.863 178.059V178.586C158.793 179.453 158.641 180.297 158.406 181.117C158.172 181.914 157.879 182.676 157.527 183.402C157.199 184.129 156.883 184.809 156.578 185.441C156.93 186.543 157.316 187.598 157.738 188.605C158.184 189.613 158.77 190.48 159.496 191.207H159.883C160.258 191.207 160.539 191.254 160.727 191.348C160.984 191.512 161.242 191.781 161.5 192.156ZM156.824 177.672C156.355 178.352 156.098 179.102 156.051 179.922V180.484C156.051 181.141 156.109 181.855 156.227 182.629C156.367 182.348 156.531 181.984 156.719 181.539C156.906 181.07 157.059 180.59 157.176 180.098C157.246 179.699 157.281 179.312 157.281 178.938V178.691C157.258 178.27 157.105 177.93 156.824 177.672ZM154.469 185.195C154.375 184.234 154.281 183.227 154.188 182.172C154.117 181.562 154.082 180.965 154.082 180.379C154.082 179.98 154.094 179.594 154.117 179.219C153.812 178.75 153.402 178.328 152.887 177.953C152.371 177.578 151.809 177.273 151.199 177.039C150.59 176.805 149.945 176.641 149.266 176.547C148.867 176.5 148.492 176.477 148.141 176.477C147.859 176.477 147.578 176.488 147.297 176.512C146.477 176.605 145.762 176.805 145.152 177.109C144.543 177.391 144.004 177.742 143.535 178.164C143.277 178.633 142.996 179.148 142.691 179.711C142.387 180.273 142.117 180.871 141.883 181.504C141.672 182.137 141.52 182.793 141.426 183.473C141.402 183.73 141.391 183.977 141.391 184.211C141.391 184.656 141.438 185.102 141.531 185.547C141.625 185.922 141.766 186.344 141.953 186.812C142.164 187.258 142.398 187.703 142.656 188.148C142.938 188.594 143.23 189.004 143.535 189.379C143.863 189.754 144.18 190.047 144.484 190.258C144.953 190.586 145.504 190.797 146.137 190.891C146.535 190.961 146.957 190.996 147.402 190.996C147.637 190.996 147.871 190.984 148.105 190.961C148.879 190.727 149.559 190.398 150.145 189.977C150.73 189.555 151.27 189.086 151.762 188.57C152.254 188.055 152.711 187.504 153.133 186.918C153.578 186.332 154.023 185.758 154.469 185.195Z" fill="black"/>
<rect width="8" height="8" transform="matrix(-1 0 0 1 180 105)" fill="#456068"/>
<rect width="8" height="6" transform="matrix(-1 0 0 1 180 107)" fill="#A87152"/>
<path d="M176.385 107.812L176.359 107.824C176.109 107.936 175.824 107.931 175.579 107.811C175.342 107.696 175.166 107.485 175.096 107.231L175.07 107.14C175.025 106.977 175.034 106.804 175.097 106.647C175.168 106.469 175.302 106.324 175.474 106.24L175.55 106.203C175.813 106.074 176.12 106.069 176.388 106.189L176.515 106.246C176.693 106.326 176.834 106.472 176.906 106.653C176.967 106.806 176.976 106.975 176.932 107.133L176.913 107.199C176.837 107.472 176.644 107.697 176.385 107.812Z" fill="white" stroke="#C4C4C4"/>
<path d="M177.13 142V135.98C177.13 133.839 175.03 132.33 173 133.012V133.012C171.266 133.595 169.403 132.573 168.963 130.797L168.704 129.753C168.219 127.796 166.221 126.618 164.273 127.142V127.142C162.23 127.691 160.156 126.369 159.791 124.285L159.667 123.578C159.289 121.416 160.616 119.32 162.732 118.738L168.437 117.169C169.113 116.983 169.78 117.492 169.78 118.192V118.192C169.78 118.944 170.541 119.458 171.238 119.177L174.585 117.826C175.802 117.335 177.13 118.232 177.13 119.544V119.544C177.13 120.842 178.431 121.738 179.644 121.274L189.602 117.465C190.734 117.032 191.708 116.266 192.397 115.268L198.463 106.474C198.936 105.789 199.546 105.21 200.254 104.773L208 100" stroke="#456068"/>
<line x1="185.416" y1="112.277" x2="179.416" y2="121.277" stroke="black"/>
<ellipse cx="186.5" cy="111" rx="4.5" ry="4" fill="#E85959"/>
<rect x="205.099" y="99" width="3.1607" height="3.18679" rx="1" transform="rotate(1.77137 205.099 99)" fill="#3792E7"/>
<path d="M163.126 98C162.289 100.601 161.073 103.198 161.005 105.936C160.939 108.569 161.563 110.4 162.654 112.801C163.602 114.886 164.883 116.871 166.004 118.881C166.675 120.084 167.822 121.001 168.512 122.17C169.204 123.341 171.008 124.347 172.064 125.293C172.787 125.941 173.551 126.413 174.488 126.787C175.252 127.091 176.677 127.256 177.299 127.662C178.457 128.417 180.954 128.44 182.383 128.673C184.485 129.015 186.711 128.959 188.88 128.959C190.987 128.959 193.25 129.19 195.243 128.552C197.041 127.977 199.095 127.601 201 127.601" stroke="#77A0C6" stroke-linecap="round" stroke-linejoin="round"/>
<path fill-rule="evenodd" clip-rule="evenodd" d="M25.0009 48.5978C25.055 51.6349 27.5607 54.0531 30.5978 53.9991C33.6349 53.9451 36.0531 51.4393 35.9991 48.4022C35.9452 45.3651 33.4393 42.9469 30.4023 43.0009C27.3651 43.0549 24.9468 45.5607 25.0009 48.5978" fill="#373741"/>
<path d="M33.2195 57.3304L31.1662 55.0904C30.0648 53.8889 30.3834 51.9727 31.8143 51.1922C33.0242 50.5323 34.5398 50.9717 35.2091 52.1764L36.3892 54.3005C36.9961 55.393 37.9933 56.216 39.181 56.6047L42.7917 57.7864C43.5125 58.0223 44 58.6947 44 59.4531C44 60.6821 42.7688 61.5299 41.6207 61.0915L35.079 58.5938C34.3694 58.3229 33.7328 57.8903 33.2195 57.3304Z" fill="#373741" stroke="#373741"/>
<path d="M133.812 79.8691C133.725 80.1328 133.628 80.3701 133.522 80.5811C133.435 80.7744 133.329 80.959 133.206 81.1348C133.101 81.293 132.978 81.4512 132.837 81.6094C132.714 81.7676 132.573 81.9521 132.415 82.1631C132.169 82.4619 131.844 82.7432 131.439 83.0068C131.035 83.2529 130.622 83.4727 130.2 83.666C129.743 83.8945 129.242 84.0791 128.697 84.2197C128.17 84.3604 127.66 84.501 127.168 84.6416C126.693 84.7646 126.254 84.9053 125.85 85.0635C125.463 85.2041 125.182 85.3887 125.006 85.6172C124.76 85.916 124.637 86.2148 124.637 86.5137C124.637 86.584 124.646 86.6455 124.663 86.6982C124.716 87.0674 124.874 87.3926 125.138 87.6738C125.401 87.9375 125.735 88.1396 126.14 88.2803C126.421 88.3857 126.702 88.4385 126.983 88.4385C127.106 88.4385 127.238 88.4297 127.379 88.4121C127.555 88.3066 127.678 88.1572 127.748 87.9639C127.836 87.7705 127.977 87.6299 128.17 87.542C128.732 87.5596 129.119 87.7617 129.33 88.1484V88.2275C129.33 88.5264 129.233 88.7812 129.04 88.9922C128.812 89.2207 128.521 89.4053 128.17 89.5459C127.836 89.6865 127.467 89.7744 127.062 89.8096C126.834 89.8447 126.623 89.8623 126.43 89.8623C126.271 89.8623 126.122 89.8535 125.981 89.8359C125.647 89.8008 125.305 89.6953 124.953 89.5195C124.619 89.3438 124.312 89.1416 124.03 88.9131C123.749 88.667 123.512 88.4121 123.318 88.1484C123.125 87.8672 123.011 87.6035 122.976 87.3574V87.1729C122.976 87.085 122.984 87.0059 123.002 86.9355C123.02 86.8125 123.046 86.6895 123.081 86.5664C123.116 86.4434 123.143 86.3027 123.16 86.1445V86.1182C123.16 85.9775 123.125 85.8105 123.055 85.6172C123.195 85.3887 123.345 85.1865 123.503 85.0107C123.661 84.8174 123.811 84.6064 123.951 84.3779C124.32 84.2373 124.689 84.0703 125.059 83.877C125.445 83.6836 125.832 83.499 126.219 83.3232C126.605 83.1475 127.001 82.998 127.405 82.875C127.827 82.752 128.258 82.6904 128.697 82.6904C129.049 82.5146 129.392 82.3389 129.726 82.1631C130.077 81.9697 130.402 81.7588 130.701 81.5303C131.018 81.3018 131.299 81.0469 131.545 80.7656C131.791 80.4844 131.993 80.1592 132.151 79.79C132.169 79.6143 132.178 79.4385 132.178 79.2627C132.178 79.0693 132.169 78.8848 132.151 78.709C132.081 78.375 131.976 78.0674 131.835 77.7861C131.712 77.5049 131.562 77.2412 131.387 76.9951C131.229 76.749 131.07 76.5029 130.912 76.2568C130.438 75.958 129.919 75.7822 129.356 75.7295H128.882C128.478 75.7295 128.064 75.7734 127.643 75.8613C127.08 75.9844 126.544 76.1689 126.034 76.415C125.542 76.6611 125.138 76.9336 124.821 77.2324C124.804 77.4785 124.769 77.6719 124.716 77.8125C124.663 77.9531 124.61 78.0762 124.558 78.1816C124.505 78.2871 124.461 78.3926 124.426 78.498C124.408 78.5684 124.399 78.6475 124.399 78.7354V78.8936C124.417 79.1572 124.496 79.377 124.637 79.5527C124.777 79.7109 124.918 79.8691 125.059 80.0273C125.217 80.168 125.34 80.3262 125.428 80.502C125.445 80.5723 125.454 80.6514 125.454 80.7393C125.454 80.8623 125.419 81.0117 125.349 81.1875C125.226 81.2754 125.05 81.3633 124.821 81.4512C124.646 81.5391 124.505 81.583 124.399 81.583C124.364 81.583 124.329 81.5742 124.294 81.5566C123.837 81.3809 123.503 81.0732 123.292 80.6338C123.081 80.1943 122.967 79.7109 122.949 79.1836V79.0254C122.949 78.5684 123.02 78.1025 123.16 77.6279C123.301 77.1182 123.503 76.6963 123.767 76.3623C124.259 75.9932 124.856 75.6416 125.56 75.3076C126.263 74.9561 127.001 74.7012 127.774 74.543C128.231 74.4551 128.68 74.4111 129.119 74.4111C129.436 74.4111 129.752 74.4287 130.068 74.4639C130.807 74.5869 131.466 74.9209 132.046 75.4658C132.362 75.7646 132.626 76.0635 132.837 76.3623C133.065 76.6611 133.25 76.9863 133.391 77.3379C133.531 77.6719 133.637 78.0498 133.707 78.4717C133.777 78.876 133.812 79.3418 133.812 79.8691ZM128.618 94.582C128.372 94.6875 128.1 94.7402 127.801 94.7402H127.563C127.142 94.7051 126.755 94.6523 126.403 94.582C126.175 94.3535 126.043 94.0195 126.008 93.5801C125.99 93.4922 125.981 93.3955 125.981 93.29C125.981 92.9736 126.034 92.6748 126.14 92.3936C126.368 92.3057 126.632 92.2617 126.931 92.2617H127.168C127.572 92.2969 127.924 92.4023 128.223 92.5781C128.539 92.7539 128.759 93.0088 128.882 93.3428C128.899 93.4307 128.908 93.5361 128.908 93.6592C128.908 93.9229 128.812 94.2305 128.618 94.582Z" fill="#E5E5E5"/>
<path d="M75.5 48.5C75.5 54.0711 71.4247 58.5 66.5 58.5C61.5753 58.5 57.5 54.0711 57.5 48.5C57.5 42.9289 61.5753 38.5 66.5 38.5C71.4247 38.5 75.5 42.9289 75.5 48.5Z" fill="#F4EDFF" stroke="#252525"/>
<path fill-rule="evenodd" clip-rule="evenodd" d="M69.5381 51.0771C69.0297 52.951 67.6017 54.189 66.3487 53.8432C65.0957 53.4968 64.4925 51.6978 65.0009 49.8239C65.5092 47.9507 66.9373 46.7121 68.1897 47.0579C69.4427 47.4043 70.0464 49.2033 69.5381 51.0771" fill="#33363D"/>
<path d="M34 47L58 47" stroke="#373737" stroke-width="1.6"/>
</svg>
